<svg width="288" height="288" viewBox="0 0 288 288" fill="none" xmlns="http://www.w3.org/2000/svg">
<rect width="288" height="288" />
<path d="M236.897 221.472L236.546 154.765L175.55 153.885L176.602 114.459L120.688 65.5282L60.0424 113.227L63.7232 221.648L172.57 221.296V222L236.897 221.472Z" fill="#FAF49D"/>
<path d="M180.282 122.027L120.338 74.8565L58.2897 122.027L49 119.739L119.987 65L189.221 119.739L180.282 122.027Z" fill="#FF7055"/>
<path d="M109.295 167.085L108.068 215.488L133.133 214.96L131.205 167.085H109.295Z" fill="#FF7055"/>
<path d="M101.583 215.487L101.057 221.648H139.969V214.783L101.583 215.487Z" fill="#E6E5D8"/>
<path d="M101.408 109.178V141.74L137.164 140.86L136.288 108.298L101.408 109.178Z" fill="white"/>
<path d="M104.212 112.346L104.563 138.044H134.009L133.133 111.642L104.212 112.346Z" fill="#C7E5EB"/>
<path d="M92.4685 111.29L92.118 139.627L104.738 138.043L104.387 112.346L92.4685 111.29Z" fill="#73A3A6"/>
<path opacity="0.3" d="M101.758 138.571L104.738 138.219L104.387 112.346L101.758 112.17V138.571Z" fill="#73A3A6"/>
<path d="M133.133 112.346L134.185 138.747L146.804 139.275L145.578 111.29L133.133 112.346Z" fill="#73A3A6"/>
<path opacity="0.3" d="M136.288 112.17L133.133 112.346L134.185 138.747L137.164 138.923L136.288 112.17Z" fill="#73A3A6"/>
<path d="M116.482 111.114L118.059 139.276H120.513L119.286 110.762L116.482 111.114Z" fill="white"/>
<path d="M137.339 172.013L137.164 199.118L167.838 198.766L166.26 171.837L137.339 172.013Z" fill="white"/>
<path d="M139.969 175.005L140.319 196.303H164.332L163.456 174.477L139.969 175.005Z" fill="#C7E5EB"/>
<path opacity="0.4" d="M151.011 174.829C151.011 174.829 149.959 187.678 140.144 187.678C140.144 178.877 139.969 175.005 139.969 175.005L151.011 174.829Z" fill="#A9D7E0"/>
<path opacity="0.4" d="M140.144 187.854C140.144 187.854 145.052 190.846 145.928 196.303C142.948 196.655 140.319 196.479 140.319 196.479L140.144 187.854Z" fill="#A9D7E0"/>
<path opacity="0.4" d="M152.589 174.829C152.589 174.829 153.991 187.678 163.982 187.678C163.982 178.877 163.631 174.829 163.631 174.829H152.589Z" fill="#A9D7E0"/>
<path opacity="0.4" d="M163.631 187.678C163.631 187.678 159.6 190.67 158.548 196.127C161.528 196.127 163.982 196.127 163.982 196.127L163.631 187.678Z" fill="#A9D7E0"/>
<path d="M72.487 172.013L71.6107 199.295H102.109L100.006 172.189L72.487 172.013Z" fill="white"/>
<path d="M74.7656 175.534L75.1162 196.479H98.7786L98.0774 175.006L74.7656 175.534Z" fill="#C7E5EB"/>
<path opacity="0.4" d="M84.7564 175.182C84.7564 175.182 84.9317 188.03 74.9409 188.03C74.9409 179.406 74.7656 175.534 74.7656 175.534L84.7564 175.182Z" fill="#A9D7E0"/>
<path opacity="0.4" d="M74.9409 188.03C74.9409 188.03 80.9003 191.022 81.7767 196.479C79.4981 196.655 74.9409 196.479 74.9409 196.479V188.03Z" fill="#A9D7E0"/>
<path opacity="0.4" d="M86.3339 175.358C86.3339 175.358 88.6125 187.854 98.428 187.854C98.0775 179.406 98.0775 175.006 98.0775 175.006L86.3339 175.358Z" fill="#A9D7E0"/>
<path opacity="0.4" d="M98.428 187.854C98.428 187.854 93.1697 191.022 92.118 196.479C95.0977 196.479 98.7786 196.479 98.7786 196.479L98.428 187.854Z" fill="#A9D7E0"/>
<path d="M183.788 168.845V201.407L219.019 200.351L217.967 167.965L183.788 168.845Z" fill="white"/>
<path d="M186.592 172.013L186.943 197.711H215.863L214.987 171.309L186.592 172.013Z" fill="#C7E5EB"/>
<path d="M175.199 172.541L175.55 198.415L186.943 197.535L186.592 173.245L175.199 172.541Z" fill="#73A3A6"/>
<path opacity="0.3" d="M183.788 197.711L186.943 197.535L186.592 173.245L183.963 173.069L183.788 197.711Z" fill="#73A3A6"/>
<path d="M214.987 172.365L215.864 197.711L227.607 197.887L226.731 171.661L214.987 172.365Z" fill="#73A3A6"/>
<path opacity="0.3" d="M218.142 172.189L215.162 172.541L215.864 197.711H218.843L218.142 172.189Z" fill="#73A3A6"/>
<path d="M199.563 170.605V198.767L202.017 198.943L202.192 170.605H199.563Z" fill="white"/>
<path d="M61.094 153.18V157.229L176.952 156.525L177.303 151.068L61.094 153.18Z" fill="#FF7055"/>
<path d="M224.627 114.81L238.825 156.172L175.55 156.525L175.9 114.986L224.627 114.81Z" fill="#FF7055"/>
<path fill-rule="evenodd" clip-rule="evenodd" d="M207.976 101.786C207.801 101.786 208.151 101.61 208.151 101.61C208.327 101.786 207.976 101.786 207.976 101.786Z" fill="#FFF3F0"/>
<path d="M213.782 102.85C213.79 102.753 213.639 102.663 213.446 102.648C213.253 102.633 213.09 102.7 213.083 102.797C213.076 102.894 213.226 102.984 213.419 102.999C213.612 103.014 213.775 102.947 213.782 102.85Z" fill="#FFF3F0"/>
<path fill-rule="evenodd" clip-rule="evenodd" d="M206.749 100.026C207.1 100.026 207.1 100.202 207.1 100.378C206.924 100.378 206.924 100.378 206.924 100.554C206.749 100.554 206.924 100.202 206.749 100.026Z" fill="#FFF3F0"/>
<path fill-rule="evenodd" clip-rule="evenodd" d="M214.637 105.658C214.461 105.658 214.812 105.482 214.812 105.482C214.812 105.658 214.637 105.658 214.637 105.658Z" fill="#FFF3F0"/>
<path d="M220.403 106.644C220.41 106.547 220.259 106.456 220.066 106.441C219.873 106.427 219.711 106.493 219.704 106.59C219.696 106.687 219.847 106.778 220.04 106.792C220.233 106.807 220.395 106.74 220.403 106.644Z" fill="#FFF3F0"/>
<path fill-rule="evenodd" clip-rule="evenodd" d="M185.365 93.5135C185.19 93.5135 185.541 93.1615 185.716 93.1615C185.891 93.3375 185.541 93.5135 185.365 93.5135Z" fill="#FFF3F0"/>
<path fill-rule="evenodd" clip-rule="evenodd" d="M196.057 97.562C195.882 97.562 196.232 97.21 196.408 97.21C196.583 97.386 196.232 97.562 196.057 97.562Z" fill="#FFF3F0"/>
<path fill-rule="evenodd" clip-rule="evenodd" d="M207.1 99.1456C206.924 99.1456 207.275 98.7936 207.45 98.7936C207.626 98.9696 207.275 99.1456 207.1 99.1456Z" fill="#FFF3F0"/>
<path fill-rule="evenodd" clip-rule="evenodd" d="M175.199 106.362C175.024 106.362 175.375 106.01 175.55 106.01C175.725 106.186 175.199 106.362 175.199 106.362Z" fill="#FFF3F0"/>
<path fill-rule="evenodd" clip-rule="evenodd" d="M188.17 103.546C187.994 103.546 188.345 103.194 188.52 103.194C188.696 103.37 188.17 103.546 188.17 103.546Z" fill="#FFF3F0"/>
<path fill-rule="evenodd" clip-rule="evenodd" d="M181.684 105.13C181.684 104.778 182.035 104.954 182.035 104.954C182.035 105.482 181.684 105.306 181.684 105.13Z" fill="#FFF3F0"/>
<path fill-rule="evenodd" clip-rule="evenodd" d="M178.179 107.066C178.529 107.066 178.705 106.89 179.055 106.89C179.055 107.066 179.055 107.242 179.231 107.418C178.88 107.418 178.705 107.594 178.354 107.594C178.354 107.418 178.354 107.242 178.179 107.066Z" fill="#FFF3F0"/>
<path fill-rule="evenodd" clip-rule="evenodd" d="M189.747 104.778C190.799 104.426 190.974 105.13 191.149 105.482C190.799 105.834 190.273 106.01 189.572 106.01C189.046 105.482 189.922 105.306 189.747 104.778Z" fill="#FFF3F0"/>
<path fill-rule="evenodd" clip-rule="evenodd" d="M188.17 105.658C188.17 105.306 188.696 105.482 188.696 105.834C188.696 106.186 188.17 106.01 188.17 105.658Z" fill="#FFF3F0"/>
<path fill-rule="evenodd" clip-rule="evenodd" d="M204.821 101.962C204.646 101.962 204.996 101.61 205.171 101.61C205.347 101.786 204.996 102.138 204.821 101.962Z" fill="#FFF3F0"/>
<path fill-rule="evenodd" clip-rule="evenodd" d="M191.5 105.13C191.5 104.778 191.851 104.954 191.851 104.954C191.851 105.482 191.5 105.306 191.5 105.13Z" fill="#FFF3F0"/>
<path fill-rule="evenodd" clip-rule="evenodd" d="M185.716 108.122C185.19 108.122 184.664 108.298 184.839 107.77C185.19 107.77 185.365 107.594 185.716 107.594C185.716 107.77 185.716 107.946 185.716 108.122Z" fill="#FFF3F0"/>
<path fill-rule="evenodd" clip-rule="evenodd" d="M188.871 107.066C188.871 106.714 189.221 106.89 189.221 106.89C189.397 107.242 188.871 107.242 188.871 107.066Z" fill="#FFF3F0"/>
<path fill-rule="evenodd" clip-rule="evenodd" d="M190.974 106.89C190.799 106.89 191.149 106.538 191.325 106.538C191.675 106.714 191.149 106.89 190.974 106.89Z" fill="#FFF3F0"/>
<path fill-rule="evenodd" clip-rule="evenodd" d="M180.458 109.178C181.685 108.474 181.509 110.762 179.932 110.586C179.932 110.058 180.983 109.882 180.458 109.178Z" fill="#FFF3F0"/>
<path fill-rule="evenodd" clip-rule="evenodd" d="M182.035 108.826C182.736 108.826 183.087 109.354 183.087 109.882C182.386 110.058 182.21 109.53 182.035 108.826Z" fill="#FFF3F0"/>
<path fill-rule="evenodd" clip-rule="evenodd" d="M185.716 108.122C187.118 108.298 185.716 109.706 185.716 108.122V108.122Z" fill="#FFF3F0"/>
<path fill-rule="evenodd" clip-rule="evenodd" d="M198.862 105.482C198.862 105.13 199.563 105.13 199.738 105.306C199.212 105.482 198.862 105.834 198.862 105.482Z" fill="#FFF3F0"/>
<path fill-rule="evenodd" clip-rule="evenodd" d="M208.502 103.37C208.327 103.37 208.677 103.018 208.852 103.018C209.028 103.194 208.677 103.37 208.502 103.37Z" fill="#FFF3F0"/>
<path fill-rule="evenodd" clip-rule="evenodd" d="M175.725 110.938C175.725 110.586 176.076 110.762 176.076 110.762C176.251 111.29 175.725 111.114 175.725 110.938Z" fill="#FFF3F0"/>
<path fill-rule="evenodd" clip-rule="evenodd" d="M200.089 105.482C201.491 105.13 202.893 106.538 200.79 106.89C201.666 106.01 200.089 106.186 200.089 105.482Z" fill="#FFF3F0"/>
<path fill-rule="evenodd" clip-rule="evenodd" d="M188.871 108.474C189.397 108.474 189.397 109.002 189.572 109.354C188.52 109.53 188.345 108.826 188.871 108.474Z" fill="#FFF3F0"/>
<path fill-rule="evenodd" clip-rule="evenodd" d="M202.192 105.834C202.192 105.306 202.718 105.834 202.718 106.186C202.718 106.714 202.192 106.186 202.192 105.834Z" fill="#FFF3F0"/>
<path fill-rule="evenodd" clip-rule="evenodd" d="M181.86 111.466C181.509 110.938 180.808 110.41 182.386 110.058C182.561 110.762 182.736 111.29 181.86 111.466Z" fill="#FFF3F0"/>
<path fill-rule="evenodd" clip-rule="evenodd" d="M192.201 108.474C192.201 108.122 192.552 108.298 192.552 108.298C192.552 108.65 192.201 108.65 192.201 108.474Z" fill="#FFF3F0"/>
<path fill-rule="evenodd" clip-rule="evenodd" d="M214.987 103.898C214.812 103.898 215.162 103.546 215.338 103.546C215.513 103.546 215.162 103.898 214.987 103.898Z" fill="#FFF3F0"/>
<path fill-rule="evenodd" clip-rule="evenodd" d="M175.375 112.698C175.375 112.522 175.9 112.346 176.076 112.346C176.076 112.522 175.55 112.522 175.375 112.698Z" fill="#FFF3F0"/>
<path fill-rule="evenodd" clip-rule="evenodd" d="M176.952 112.346C176.777 112.346 177.127 111.994 177.303 111.994C177.478 112.17 177.127 112.346 176.952 112.346Z" fill="#FFF3F0"/>
<path fill-rule="evenodd" clip-rule="evenodd" d="M178.179 112.17C178.004 112.17 178.354 111.818 178.529 111.818C178.705 111.818 178.354 112.17 178.179 112.17Z" fill="#FFF3F0"/>
<path fill-rule="evenodd" clip-rule="evenodd" d="M179.756 113.051C180.107 112.523 179.581 111.819 180.282 111.291C182.035 110.939 179.581 112.171 180.633 113.051C180.107 113.227 179.932 113.051 179.756 113.051Z" fill="#FFF3F0"/>
<path fill-rule="evenodd" clip-rule="evenodd" d="M185.015 110.586C185.015 110.234 185.365 110.41 185.365 110.41C185.365 110.762 185.015 110.762 185.015 110.586Z" fill="#FFF3F0"/>
<path fill-rule="evenodd" clip-rule="evenodd" d="M190.273 109.53C190.098 109.53 190.448 109.178 190.624 109.178C190.974 109.178 190.448 109.53 190.273 109.53Z" fill="#FFF3F0"/>
<path fill-rule="evenodd" clip-rule="evenodd" d="M210.605 104.954C210.605 104.602 210.956 104.778 210.956 104.778C210.956 105.306 210.605 105.13 210.605 104.954Z" fill="#FFF3F0"/>
<path fill-rule="evenodd" clip-rule="evenodd" d="M228.834 101.082C228.834 100.906 229.36 100.73 229.535 100.73C229.71 100.906 229.185 100.906 228.834 101.082Z" fill="#FFF3F0"/>
<path fill-rule="evenodd" clip-rule="evenodd" d="M228.133 101.434C228.133 101.082 228.659 101.258 228.659 101.61C228.483 102.138 228.133 101.786 228.133 101.434Z" fill="#FFF3F0"/>
<path fill-rule="evenodd" clip-rule="evenodd" d="M177.127 113.051C176.601 112.171 178.705 112.171 179.055 112.347C179.055 112.699 178.004 112.699 178.354 113.227C177.828 113.403 178.004 112.699 177.127 113.051Z" fill="#FFF3F0"/>
<path fill-rule="evenodd" clip-rule="evenodd" d="M181.86 111.466C182.736 112.875 180.808 113.227 180.983 111.642C181.334 111.642 181.684 111.642 181.86 111.466Z" fill="#FFF3F0"/>
<path fill-rule="evenodd" clip-rule="evenodd" d="M186.242 110.586C187.469 110.41 187.469 111.642 186.066 111.642C186.417 111.466 186.417 110.938 186.242 110.586Z" fill="#FFF3F0"/>
<path fill-rule="evenodd" clip-rule="evenodd" d="M187.995 110.41C188.871 110.058 188.871 110.586 189.046 110.938C188.696 110.938 188.52 110.762 188.17 110.938C188.17 110.762 187.995 110.586 187.995 110.41Z" fill="#FFF3F0"/>
<path fill-rule="evenodd" clip-rule="evenodd" d="M196.934 108.474C197.635 108.65 198.336 108.65 198.336 109.178C197.81 109.178 196.934 109.178 196.934 108.474Z" fill="#FFF3F0"/>
<path fill-rule="evenodd" clip-rule="evenodd" d="M177.127 113.05C177.127 113.226 177.303 113.578 177.303 113.754C176.777 113.93 176.601 113.226 177.127 113.05Z" fill="#FFF3F0"/>
<path fill-rule="evenodd" clip-rule="evenodd" d="M184.489 111.818C184.489 111.466 184.84 111.642 184.84 111.642C184.84 111.994 184.489 111.994 184.489 111.818Z" fill="#FFF3F0"/>
<path fill-rule="evenodd" clip-rule="evenodd" d="M199.563 108.474C199.387 108.298 200.089 108.298 199.563 108.474V108.474Z" fill="#FFF3F0"/>
<path fill-rule="evenodd" clip-rule="evenodd" d="M195.005 109.53C195.882 109.354 196.057 110.058 195.707 110.41C195.181 110.41 195.181 109.882 195.005 109.53Z" fill="#FFF3F0"/>
<path fill-rule="evenodd" clip-rule="evenodd" d="M199.563 108.474C199.563 108.826 198.862 108.826 199.563 108.474V108.474Z" fill="#FFF3F0"/>
<path fill-rule="evenodd" clip-rule="evenodd" d="M202.718 107.77C204.646 107.594 202.718 109.354 202.718 107.77V107.77Z" fill="#FFF3F0"/>
<path fill-rule="evenodd" clip-rule="evenodd" d="M204.821 107.594C204.821 107.242 205.347 107.418 205.347 107.77C205.347 108.298 204.821 107.946 204.821 107.594Z" fill="#FFF3F0"/>
<path fill-rule="evenodd" clip-rule="evenodd" d="M179.756 113.05C179.756 113.402 179.055 113.402 179.756 113.05V113.05Z" fill="#FFF3F0"/>
<path fill-rule="evenodd" clip-rule="evenodd" d="M196.408 109.706C196.232 109.706 196.583 109.354 196.758 109.354C196.934 109.53 196.408 109.706 196.408 109.706Z" fill="#FFF3F0"/>
<path fill-rule="evenodd" clip-rule="evenodd" d="M219.544 104.778C219.544 104.25 220.245 104.778 220.07 104.954C219.544 105.306 218.843 104.778 219.544 104.778Z" fill="#FFF3F0"/>
<path fill-rule="evenodd" clip-rule="evenodd" d="M177.303 113.93C177.828 113.754 177.653 114.106 177.303 113.93V113.93Z" fill="#FFF3F0"/>
<path fill-rule="evenodd" clip-rule="evenodd" d="M209.028 107.242C208.852 107.242 209.203 106.89 209.378 106.89C209.553 107.066 209.028 107.242 209.028 107.242Z" fill="#FFF3F0"/>
<path fill-rule="evenodd" clip-rule="evenodd" d="M212.708 106.538C212.533 106.538 212.884 106.186 213.059 106.186C213.234 106.186 212.708 106.538 212.708 106.538Z" fill="#FFF3F0"/>
<path fill-rule="evenodd" clip-rule="evenodd" d="M180.983 113.578C180.983 113.402 181.509 113.226 181.685 113.226C181.86 113.402 181.334 113.402 180.983 113.578Z" fill="#FFF3F0"/>
<path fill-rule="evenodd" clip-rule="evenodd" d="M182.736 113.226C183.262 112.17 183.963 113.578 183.788 114.106C183.262 114.106 182.911 114.282 182.561 114.282C182.21 113.754 183.262 113.754 183.262 113.402C183.087 113.226 182.911 113.226 182.736 113.226Z" fill="#FFF3F0"/>
<path fill-rule="evenodd" clip-rule="evenodd" d="M185.541 112.698C185.541 112.346 186.242 112.346 186.417 112.522C186.242 112.874 185.891 112.522 185.541 112.698Z" fill="#FFF3F0"/>
<path fill-rule="evenodd" clip-rule="evenodd" d="M192.902 111.114C192.902 110.762 193.253 110.938 193.253 110.938C193.253 111.29 192.902 111.114 192.902 111.114Z" fill="#FFF3F0"/>
<path fill-rule="evenodd" clip-rule="evenodd" d="M179.055 114.283C179.932 114.107 180.107 114.811 179.756 115.163C178.705 115.339 178.705 114.811 179.055 114.283Z" fill="#FFF3F0"/>
<path fill-rule="evenodd" clip-rule="evenodd" d="M177.127 115.163C177.127 114.811 177.478 114.987 177.478 114.987C177.653 115.515 177.303 115.339 177.127 115.163Z" fill="#FFF3F0"/>
<path fill-rule="evenodd" clip-rule="evenodd" d="M190.098 112.346C189.922 111.994 192.201 111.466 191.85 112.17C190.974 112.522 190.799 112.346 190.098 112.346Z" fill="#FFF3F0"/>
<path fill-rule="evenodd" clip-rule="evenodd" d="M200.965 109.706C201.841 109.53 201.491 110.586 202.367 110.41C202.192 111.29 200.965 110.41 200.965 109.706Z" fill="#FFF3F0"/>
<path fill-rule="evenodd" clip-rule="evenodd" d="M209.553 108.122C209.553 107.77 209.904 107.946 209.904 107.946C210.079 108.474 209.729 108.298 209.553 108.122Z" fill="#FFF3F0"/>
<path fill-rule="evenodd" clip-rule="evenodd" d="M180.458 114.458C181.159 114.282 181.334 114.458 181.334 114.81C180.983 114.81 180.983 114.986 180.983 115.162C180.458 115.338 180.633 114.81 180.458 114.458Z" fill="#FFF3F0"/>
<path fill-rule="evenodd" clip-rule="evenodd" d="M195.356 111.291C197.109 111.643 194.48 112.347 195.356 111.291V111.291Z" fill="#FFF3F0"/>
<path fill-rule="evenodd" clip-rule="evenodd" d="M223.751 105.13C224.803 105.13 224.277 106.362 223.4 105.658C223.576 105.482 223.926 105.306 223.751 105.13Z" fill="#FFF3F0"/>
<path fill-rule="evenodd" clip-rule="evenodd" d="M186.417 114.283C186.242 114.283 186.066 114.283 186.066 114.459C186.066 114.635 186.417 114.459 186.417 114.283C188.17 113.754 187.994 114.811 189.397 113.93C189.397 114.106 189.572 114.459 189.572 114.635C188.696 114.811 186.943 114.459 187.644 115.515C186.066 116.043 184.138 113.754 186.242 113.402C186.242 113.754 186.242 114.107 186.417 114.283Z" fill="#FFF3F0"/>
<path fill-rule="evenodd" clip-rule="evenodd" d="M228.834 104.602C228.659 104.602 229.009 104.25 229.184 104.25C229.36 104.25 229.009 104.602 228.834 104.602Z" fill="#FFF3F0"/>
<path fill-rule="evenodd" clip-rule="evenodd" d="M182.736 115.163C183.262 113.755 185.365 114.811 184.489 115.339C184.138 115.515 183.613 114.459 182.736 115.163Z" fill="#FFF3F0"/>
<path fill-rule="evenodd" clip-rule="evenodd" d="M190.448 113.402C190.273 113.402 190.624 113.05 190.799 113.05C190.974 113.226 190.448 113.402 190.448 113.402Z" fill="#FFF3F0"/>
<path fill-rule="evenodd" clip-rule="evenodd" d="M192.376 113.05C192.201 113.05 192.552 112.698 192.727 112.698C193.077 112.698 192.552 113.05 192.376 113.05Z" fill="#FFF3F0"/>
<path fill-rule="evenodd" clip-rule="evenodd" d="M194.48 112.522C194.304 112.522 194.655 112.17 194.83 112.17C195.006 112.346 194.655 112.522 194.48 112.522Z" fill="#FFF3F0"/>
<path fill-rule="evenodd" clip-rule="evenodd" d="M198.161 111.818C196.408 112.347 197.81 110.938 198.161 111.818V111.818Z" fill="#FFF3F0"/>
<path fill-rule="evenodd" clip-rule="evenodd" d="M200.089 111.29C199.913 111.29 200.264 110.938 200.439 110.938C200.79 111.114 200.264 111.29 200.089 111.29Z" fill="#FFF3F0"/>
<path fill-rule="evenodd" clip-rule="evenodd" d="M198.16 111.818C198.862 111.642 199.563 111.466 199.563 111.994C199.212 112.17 198.686 112.17 198.336 112.346C198.16 112.17 198.16 111.994 198.16 111.818Z" fill="#FFF3F0"/>
<path fill-rule="evenodd" clip-rule="evenodd" d="M205.172 110.762C204.47 109.706 206.399 110.41 205.172 110.762V110.762Z" fill="#FFF3F0"/>
<path fill-rule="evenodd" clip-rule="evenodd" d="M206.223 110.234C206.048 110.234 206.399 109.882 206.574 109.882C206.924 110.058 206.399 110.234 206.223 110.234Z" fill="#FFF3F0"/>
<path fill-rule="evenodd" clip-rule="evenodd" d="M216.039 108.122C215.863 108.122 216.214 107.77 216.389 107.77C216.565 107.946 216.214 108.122 216.039 108.122Z" fill="#FFF3F0"/>
<path fill-rule="evenodd" clip-rule="evenodd" d="M190.448 113.931C190.273 113.931 190.624 113.578 190.799 113.578C191.149 113.754 190.624 113.931 190.448 113.931Z" fill="#FFF3F0"/>
<path fill-rule="evenodd" clip-rule="evenodd" d="M192.026 113.402C192.376 113.402 192.552 113.226 192.902 113.226C193.253 113.754 192.376 113.754 191.851 113.93C191.851 113.754 192.201 113.578 192.026 113.402Z" fill="#FFF3F0"/>
<path fill-rule="evenodd" clip-rule="evenodd" d="M194.129 112.874C194.48 112.874 194.655 112.698 195.006 112.698C195.181 113.05 194.655 113.226 194.83 113.578C194.48 113.578 194.304 113.754 193.954 113.754C193.603 113.402 194.129 113.226 194.129 112.874Z" fill="#FFF3F0"/>
<path fill-rule="evenodd" clip-rule="evenodd" d="M182.035 116.043C181.86 116.043 182.21 115.691 182.386 115.691C182.561 115.867 182.21 116.043 182.035 116.043Z" fill="#FFF3F0"/>
<path fill-rule="evenodd" clip-rule="evenodd" d="M205.172 110.762C205.873 111.994 203.945 111.29 205.172 110.762V110.762Z" fill="#FFF3F0"/>
<path fill-rule="evenodd" clip-rule="evenodd" d="M212.884 109.354C212.708 109.354 213.059 109.002 213.234 109.002C213.41 109.002 213.059 109.354 212.884 109.354Z" fill="#FFF3F0"/>
<path fill-rule="evenodd" clip-rule="evenodd" d="M197.109 113.05C196.934 113.05 197.284 112.698 197.459 112.698C197.635 112.698 197.284 113.05 197.109 113.05Z" fill="#FFF3F0"/>
<path fill-rule="evenodd" clip-rule="evenodd" d="M204.12 111.995C203.769 112.171 203.769 112.347 203.769 112.523C202.367 112.875 203.945 110.586 204.12 111.995Z" fill="#FFF3F0"/>
<path fill-rule="evenodd" clip-rule="evenodd" d="M197.985 113.05C198.336 113.05 198.686 113.226 199.212 113.05C199.387 113.578 198.686 113.93 198.686 114.458C197.284 114.634 198.511 113.93 197.985 113.05Z" fill="#FFF3F0"/>
<path fill-rule="evenodd" clip-rule="evenodd" d="M190.799 115.514C190.624 115.514 190.448 115.514 190.448 115.69C190.273 115.162 190.799 114.81 190.799 115.514Z" fill="#FFF3F0"/>
<path d="M192.103 115.335C192.387 115.276 192.586 115.074 192.547 114.884C192.508 114.693 192.246 114.587 191.961 114.646C191.677 114.704 191.478 114.907 191.517 115.097C191.556 115.287 191.818 115.394 192.103 115.335Z" fill="#FFF3F0"/>
<path fill-rule="evenodd" clip-rule="evenodd" d="M193.603 114.635C193.428 114.635 193.779 114.283 193.954 114.283C194.304 114.283 193.779 114.635 193.603 114.635Z" fill="#FFF3F0"/>
<path fill-rule="evenodd" clip-rule="evenodd" d="M204.12 111.994C205.347 111.818 203.945 113.226 204.12 111.994V111.994Z" fill="#FFF3F0"/>
<path fill-rule="evenodd" clip-rule="evenodd" d="M205.347 111.994C205.697 111.994 205.873 111.818 206.223 111.818C206.048 111.994 205.873 112.346 206.048 112.698C205.172 112.698 204.996 112.522 205.347 111.994Z" fill="#FFF3F0"/>
<path fill-rule="evenodd" clip-rule="evenodd" d="M183.087 117.098C183.437 117.098 183.613 116.922 183.963 116.922C183.963 117.098 183.963 117.275 184.138 117.451C183.788 117.451 183.613 117.627 183.262 117.627C183.262 117.451 183.262 117.275 183.087 117.098Z" fill="#FFF3F0"/>
<path fill-rule="evenodd" clip-rule="evenodd" d="M184.84 116.747C185.19 116.747 185.365 116.571 185.716 116.571C185.716 116.747 185.716 116.923 185.891 117.099C185.541 117.099 185.365 117.275 185.015 117.275C184.84 117.099 184.84 116.923 184.84 116.747Z" fill="#FFF3F0"/>
<path fill-rule="evenodd" clip-rule="evenodd" d="M186.417 116.395C186.768 116.395 186.943 116.219 187.293 116.219C187.293 116.395 187.293 116.571 187.469 116.747C187.118 116.747 186.943 116.923 186.592 116.923C186.417 116.747 186.417 116.571 186.417 116.395Z" fill="#FFF3F0"/>
<path fill-rule="evenodd" clip-rule="evenodd" d="M190.448 115.515C190.273 115.867 189.747 116.219 188.871 116.395C188.345 115.691 189.747 115.691 190.448 115.515Z" fill="#FFF3F0"/>
<path fill-rule="evenodd" clip-rule="evenodd" d="M190.799 115.515C192.201 115.515 190.799 116.923 190.799 115.515V115.515Z" fill="#FFF3F0"/>
<path fill-rule="evenodd" clip-rule="evenodd" d="M192.902 115.339C192.902 115.163 193.428 114.987 193.603 114.987C193.779 115.163 193.253 115.163 192.902 115.339Z" fill="#FFF3F0"/>
<path fill-rule="evenodd" clip-rule="evenodd" d="M194.48 114.635C195.006 114.635 195.356 114.987 195.531 115.515C194.48 116.043 194.655 115.163 194.48 114.635Z" fill="#FFF3F0"/>
<path fill-rule="evenodd" clip-rule="evenodd" d="M196.057 114.282C196.408 114.282 196.583 114.106 196.934 114.106C196.934 114.282 196.934 114.458 197.109 114.634C196.758 114.634 196.583 114.81 196.232 114.81C196.232 114.634 196.232 114.458 196.057 114.282Z" fill="#FFF3F0"/>
<path fill-rule="evenodd" clip-rule="evenodd" d="M207.1 112.17C206.924 112.17 207.275 111.818 207.45 111.818C207.801 111.994 207.275 112.17 207.1 112.17Z" fill="#FFF3F0"/>
<path fill-rule="evenodd" clip-rule="evenodd" d="M211.481 110.938C212.533 110.762 212.533 111.642 212.708 112.346C211.306 112.874 211.832 111.466 211.481 110.938Z" fill="#FFF3F0"/>
<path fill-rule="evenodd" clip-rule="evenodd" d="M181.684 118.155C181.684 117.803 182.385 117.803 182.561 117.979C182.385 118.507 182.21 118.155 181.684 118.155Z" fill="#FFF3F0"/>
<path fill-rule="evenodd" clip-rule="evenodd" d="M219.369 110.058C219.369 109.882 219.895 109.706 220.07 109.706C220.245 109.882 219.72 109.882 219.369 110.058Z" fill="#FFF3F0"/>
<path fill-rule="evenodd" clip-rule="evenodd" d="M178.179 119.739C178.179 119.387 178.529 119.563 178.529 119.563C178.705 120.091 178.354 119.915 178.179 119.739Z" fill="#FFF3F0"/>
<path fill-rule="evenodd" clip-rule="evenodd" d="M183.087 118.683C182.561 118.859 182.736 118.331 183.087 118.683V118.683Z" fill="#FFF3F0"/>
<path fill-rule="evenodd" clip-rule="evenodd" d="M187.994 117.626C187.819 117.45 188.52 117.45 187.994 117.626V117.626Z" fill="#FFF3F0"/>
<path fill-rule="evenodd" clip-rule="evenodd" d="M191.325 117.451C190.098 117.451 190.273 118.155 188.871 118.155C188.696 117.627 192.026 116.043 191.325 117.451Z" fill="#FFF3F0"/>
<path fill-rule="evenodd" clip-rule="evenodd" d="M207.45 113.402C207.45 113.05 207.801 113.226 207.801 113.226C207.801 113.578 207.45 113.578 207.45 113.402Z" fill="#FFF3F0"/>
<path fill-rule="evenodd" clip-rule="evenodd" d="M216.389 111.466C216.389 111.114 216.74 111.29 216.74 111.29C216.74 111.642 216.389 111.642 216.389 111.466Z" fill="#FFF3F0"/>
<path fill-rule="evenodd" clip-rule="evenodd" d="M183.087 118.683C185.015 117.979 182.911 120.091 183.087 118.683V118.683Z" fill="#FFF3F0"/>
<path fill-rule="evenodd" clip-rule="evenodd" d="M187.994 117.627C188.696 118.155 186.417 118.683 186.768 117.979C187.118 117.803 187.644 117.803 187.994 117.627Z" fill="#FFF3F0"/>
<path fill-rule="evenodd" clip-rule="evenodd" d="M194.129 116.57C194.129 116.042 194.83 116.57 194.655 116.746C194.304 117.098 193.428 116.57 194.129 116.57Z" fill="#FFF3F0"/>
<path fill-rule="evenodd" clip-rule="evenodd" d="M198.511 115.691C198.686 115.339 198.862 115.691 199.387 115.515C199.387 115.867 198.686 115.867 198.511 115.691Z" fill="#FFF3F0"/>
<path fill-rule="evenodd" clip-rule="evenodd" d="M204.996 114.283C204.996 113.931 205.347 114.107 205.347 114.107C205.522 114.459 205.172 114.283 204.996 114.283Z" fill="#FFF3F0"/>
<path fill-rule="evenodd" clip-rule="evenodd" d="M224.803 109.706C225.679 109.53 225.153 110.762 225.504 111.114C224.978 110.938 224.277 110.234 224.803 109.706Z" fill="#FFF3F0"/>
<path fill-rule="evenodd" clip-rule="evenodd" d="M196.583 116.395C196.583 116.043 197.284 116.043 197.81 115.867C197.81 116.043 197.109 116.219 196.583 116.395Z" fill="#FFF3F0"/>
<path fill-rule="evenodd" clip-rule="evenodd" d="M210.78 113.05C210.956 113.93 209.028 113.93 208.151 114.458C207.801 113.402 210.079 113.578 210.78 113.05Z" fill="#FFF3F0"/>
<path fill-rule="evenodd" clip-rule="evenodd" d="M191.325 117.451C192.902 116.923 191.675 118.155 191.325 117.451V117.451Z" fill="#FFF3F0"/>
<path fill-rule="evenodd" clip-rule="evenodd" d="M195.005 116.923C195.005 116.571 195.707 116.571 195.882 116.747C195.707 117.099 195.531 116.747 195.005 116.923Z" fill="#FFF3F0"/>
<path fill-rule="evenodd" clip-rule="evenodd" d="M215.688 112.346C215.688 111.994 216.389 111.994 216.565 112.17C216.389 112.698 216.214 112.346 215.688 112.346Z" fill="#FFF3F0"/>
<path fill-rule="evenodd" clip-rule="evenodd" d="M220.596 111.29C220.596 110.938 221.297 110.938 221.823 110.762C221.823 111.114 221.122 111.29 220.596 111.29Z" fill="#FFF3F0"/>
<path fill-rule="evenodd" clip-rule="evenodd" d="M223.926 110.586C223.926 110.058 224.452 110.586 224.452 110.938C224.277 111.642 223.751 111.114 223.926 110.586Z" fill="#FFF3F0"/>
<path fill-rule="evenodd" clip-rule="evenodd" d="M226.73 110.058C226.555 110.058 226.906 109.706 227.081 109.706C227.256 109.882 226.73 110.058 226.73 110.058Z" fill="#FFF3F0"/>
<path fill-rule="evenodd" clip-rule="evenodd" d="M230.412 109.178C230.412 108.826 230.762 109.002 230.762 109.002C230.762 109.53 230.412 109.354 230.412 109.178Z" fill="#FFF3F0"/>
<path fill-rule="evenodd" clip-rule="evenodd" d="M191.149 118.507C191.149 118.155 191.5 118.331 191.5 118.331C191.5 118.859 191.149 118.683 191.149 118.507Z" fill="#FFF3F0"/>
<path fill-rule="evenodd" clip-rule="evenodd" d="M221.297 114.106C221.122 113.402 220.947 112.522 220.771 111.818C221.998 111.994 221.823 113.578 221.297 114.106Z" fill="#FFF3F0"/>
<path fill-rule="evenodd" clip-rule="evenodd" d="M227.256 110.762C227.256 110.586 227.782 110.41 227.957 110.41C228.133 110.586 227.607 110.586 227.256 110.762Z" fill="#FFF3F0"/>
<path fill-rule="evenodd" clip-rule="evenodd" d="M196.758 117.274C197.985 117.45 196.232 118.33 195.356 118.33C194.48 117.626 197.109 117.978 196.758 117.274Z" fill="#FFF3F0"/>
<path fill-rule="evenodd" clip-rule="evenodd" d="M212.533 114.987C211.657 113.403 213.585 114.107 212.533 114.987V114.987Z" fill="#FFF3F0"/>
<path fill-rule="evenodd" clip-rule="evenodd" d="M215.162 113.578C215.162 113.226 215.688 113.402 215.688 113.754C215.688 114.282 215.162 113.93 215.162 113.578Z" fill="#FFF3F0"/>
<path fill-rule="evenodd" clip-rule="evenodd" d="M187.994 119.739C187.819 119.739 188.17 119.387 188.345 119.387C188.696 119.563 188.17 119.915 187.994 119.739Z" fill="#FFF3F0"/>
<path fill-rule="evenodd" clip-rule="evenodd" d="M223.4 112.17C223.4 111.818 224.101 111.818 224.277 111.994C223.751 112.17 223.4 112.346 223.4 112.17Z" fill="#FFF3F0"/>
<path fill-rule="evenodd" clip-rule="evenodd" d="M194.655 118.682C194.655 118.33 195.006 118.506 195.006 118.506C195.006 118.858 194.655 118.682 194.655 118.682Z" fill="#FFF3F0"/>
<path fill-rule="evenodd" clip-rule="evenodd" d="M216.389 113.578C216.74 113.578 216.915 113.402 217.266 113.402C217.266 113.578 217.266 113.754 217.441 113.93C217.09 113.93 216.915 114.107 216.565 114.107C216.565 113.93 216.389 113.754 216.389 113.578Z" fill="#FFF3F0"/>
<path fill-rule="evenodd" clip-rule="evenodd" d="M208.852 115.867C208.677 115.867 209.028 115.515 209.203 115.515C209.378 115.515 209.028 115.867 208.852 115.867Z" fill="#FFF3F0"/>
<path d="M219.45 113.932C219.735 113.874 219.934 113.672 219.895 113.481C219.856 113.291 219.593 113.184 219.309 113.243C219.024 113.302 218.826 113.504 218.865 113.694C218.904 113.885 219.166 113.991 219.45 113.932Z" fill="#FFF3F0"/>
<path fill-rule="evenodd" clip-rule="evenodd" d="M199.212 118.155C199.037 118.155 199.387 117.803 199.563 117.803C199.738 117.979 199.212 118.155 199.212 118.155Z" fill="#FFF3F0"/>
<path fill-rule="evenodd" clip-rule="evenodd" d="M207.625 116.395C207.45 116.395 207.801 116.043 207.976 116.043C208.327 116.043 207.801 116.395 207.625 116.395Z" fill="#FFF3F0"/>
<path fill-rule="evenodd" clip-rule="evenodd" d="M212.533 114.987C212.884 115.515 212.708 116.043 212.358 116.395C211.131 116.395 212.708 115.691 212.007 115.163C212.183 114.987 212.358 114.987 212.533 114.987Z" fill="#FFF3F0"/>
<path fill-rule="evenodd" clip-rule="evenodd" d="M223.05 112.874C222.874 112.874 223.225 112.522 223.4 112.522C223.751 112.698 223.225 113.05 223.05 112.874Z" fill="#FFF3F0"/>
<path fill-rule="evenodd" clip-rule="evenodd" d="M214.637 114.986C214.637 115.162 214.637 115.338 214.812 115.514C212.884 116.218 213.76 114.458 214.637 114.986Z" fill="#FFF3F0"/>
<path fill-rule="evenodd" clip-rule="evenodd" d="M187.995 121.147C187.995 120.795 188.345 120.971 188.345 120.971C188.345 121.323 187.995 121.323 187.995 121.147Z" fill="#FFF3F0"/>
<path fill-rule="evenodd" clip-rule="evenodd" d="M227.607 112.522C227.432 112.522 227.782 112.17 227.957 112.17C228.308 112.17 227.782 112.522 227.607 112.522Z" fill="#FFF3F0"/>
<path fill-rule="evenodd" clip-rule="evenodd" d="M191.675 120.619C191.675 120.267 192.201 120.443 192.201 120.795C192.026 121.147 191.675 120.795 191.675 120.619Z" fill="#FFF3F0"/>
<path fill-rule="evenodd" clip-rule="evenodd" d="M198.511 119.035C198.686 118.683 198.862 119.035 199.387 118.859C199.387 119.211 198.511 119.387 198.511 119.035Z" fill="#FFF3F0"/>
<path fill-rule="evenodd" clip-rule="evenodd" d="M201.666 118.155C202.718 117.979 202.017 119.035 201.841 119.211C200.614 119.211 202.192 118.507 201.666 118.155Z" fill="#FFF3F0"/>
<path fill-rule="evenodd" clip-rule="evenodd" d="M217.616 114.635C219.194 115.163 216.565 115.867 217.616 114.635V114.635Z" fill="#FFF3F0"/>
<path fill-rule="evenodd" clip-rule="evenodd" d="M223.576 113.402C224.452 113.226 224.627 113.93 224.627 114.458C223.926 114.458 222.875 114.106 223.576 113.402Z" fill="#FFF3F0"/>
<path fill-rule="evenodd" clip-rule="evenodd" d="M182.035 122.907C182.035 122.555 182.561 122.731 182.561 123.083C182.386 123.611 182.035 123.259 182.035 122.907Z" fill="#FFF3F0"/>
<path fill-rule="evenodd" clip-rule="evenodd" d="M221.297 114.106C221.297 114.458 220.771 114.458 221.297 114.106V114.106Z" fill="#FFF3F0"/>
<path fill-rule="evenodd" clip-rule="evenodd" d="M226.03 113.05C227.958 112.874 226.03 114.634 226.03 113.05V113.05Z" fill="#FFF3F0"/>
<path fill-rule="evenodd" clip-rule="evenodd" d="M228.308 113.226C228.308 112.874 228.659 113.05 228.659 113.05C228.659 113.402 228.308 113.226 228.308 113.226Z" fill="#FFF3F0"/>
<path fill-rule="evenodd" clip-rule="evenodd" d="M229.885 112.522C230.411 112.522 230.762 112.698 230.937 113.05C230.236 113.226 229.885 113.05 229.885 112.522Z" fill="#FFF3F0"/>
<path fill-rule="evenodd" clip-rule="evenodd" d="M214.987 116.395C214.987 116.042 215.513 116.219 215.513 116.571C215.338 116.923 214.987 116.571 214.987 116.395Z" fill="#FFF3F0"/>
<path fill-rule="evenodd" clip-rule="evenodd" d="M221.472 115.162C221.472 114.634 221.998 115.162 221.998 115.514C221.998 116.042 221.472 115.514 221.472 115.162Z" fill="#FFF3F0"/>
<path fill-rule="evenodd" clip-rule="evenodd" d="M215.513 116.923C217.266 116.747 215.513 118.507 215.513 116.923V116.923Z" fill="#FFF3F0"/>
<path fill-rule="evenodd" clip-rule="evenodd" d="M217.09 116.57C218.142 115.866 218.493 117.451 217.266 117.275C217.266 117.099 217.266 116.923 217.09 116.57Z" fill="#FFF3F0"/>
<path fill-rule="evenodd" clip-rule="evenodd" d="M226.555 115.162C225.854 116.218 224.803 114.634 226.555 115.162V115.162Z" fill="#FFF3F0"/>
<path fill-rule="evenodd" clip-rule="evenodd" d="M227.782 114.811C227.607 114.811 227.957 114.458 228.133 114.458C228.308 114.635 227.957 114.987 227.782 114.811Z" fill="#FFF3F0"/>
<path fill-rule="evenodd" clip-rule="evenodd" d="M200.439 121.851C199.913 122.027 200.089 121.499 200.439 121.851V121.851Z" fill="#FFF3F0"/>
<path fill-rule="evenodd" clip-rule="evenodd" d="M216.74 118.331C216.565 117.627 218.493 118.155 216.74 118.331V118.331Z" fill="#FFF3F0"/>
<path fill-rule="evenodd" clip-rule="evenodd" d="M199.212 122.379C199.037 122.379 199.387 122.027 199.563 122.027C199.913 122.203 199.387 122.379 199.212 122.379Z" fill="#FFF3F0"/>
<path fill-rule="evenodd" clip-rule="evenodd" d="M200.439 121.851C201.666 121.323 201.14 122.203 200.965 122.555C200.614 122.555 200.439 122.203 200.439 121.851Z" fill="#FFF3F0"/>
<path fill-rule="evenodd" clip-rule="evenodd" d="M202.192 121.851C202.017 121.851 202.367 121.499 202.542 121.499C202.718 121.499 202.192 121.851 202.192 121.851Z" fill="#FFF3F0"/>
<path fill-rule="evenodd" clip-rule="evenodd" d="M216.74 118.331C217.441 119.387 214.636 118.507 216.74 118.331V118.331Z" fill="#FFF3F0"/>
<path d="M220.485 118.148C220.769 118.089 220.968 117.887 220.929 117.696C220.89 117.506 220.628 117.399 220.343 117.458C220.059 117.517 219.86 117.719 219.899 117.909C219.938 118.1 220.2 118.206 220.485 118.148Z" fill="#FFF3F0"/>
<path fill-rule="evenodd" clip-rule="evenodd" d="M227.958 115.867C228.483 115.867 228.308 116.395 228.834 116.219C229.009 116.395 228.659 116.571 228.483 116.571C228.133 116.571 227.958 116.747 227.607 116.747C227.607 116.395 228.133 116.219 227.958 115.867Z" fill="#FFF3F0"/>
<path fill-rule="evenodd" clip-rule="evenodd" d="M224.978 117.275C224.803 117.275 225.153 116.922 225.328 116.922C225.504 117.098 225.153 117.451 224.978 117.275Z" fill="#FFF3F0"/>
<path fill-rule="evenodd" clip-rule="evenodd" d="M226.906 116.923C226.731 116.923 227.081 116.571 227.256 116.571C227.607 116.571 227.081 116.923 226.906 116.923Z" fill="#FFF3F0"/>
<path fill-rule="evenodd" clip-rule="evenodd" d="M219.194 119.915C218.317 118.331 220.245 119.035 219.194 119.915V119.915Z" fill="#FFF3F0"/>
<path fill-rule="evenodd" clip-rule="evenodd" d="M186.592 126.779C186.592 126.427 186.943 126.603 186.943 126.603C187.118 126.955 186.768 126.955 186.592 126.779Z" fill="#FFF3F0"/>
<path fill-rule="evenodd" clip-rule="evenodd" d="M221.823 118.859C222.173 118.859 222.349 118.682 222.699 118.682C222.699 118.859 222.699 119.035 222.874 119.211C222.524 119.211 222.349 119.387 221.998 119.387C221.998 119.211 221.998 119.035 221.823 118.859Z" fill="#FFF3F0"/>
<path fill-rule="evenodd" clip-rule="evenodd" d="M200.965 123.963C200.965 123.787 201.491 123.611 201.666 123.611C201.666 123.787 201.315 123.787 200.965 123.963Z" fill="#FFF3F0"/>
<path fill-rule="evenodd" clip-rule="evenodd" d="M219.194 119.915C219.369 120.267 218.668 120.267 219.194 119.915V119.915Z" fill="#FFF3F0"/>
<path fill-rule="evenodd" clip-rule="evenodd" d="M226.906 118.507C226.906 118.155 227.256 118.331 227.256 118.331C227.256 118.683 226.906 118.683 226.906 118.507Z" fill="#FFF3F0"/>
<path fill-rule="evenodd" clip-rule="evenodd" d="M229.009 118.506C228.834 118.506 229.184 118.154 229.36 118.154C229.71 118.33 229.184 118.682 229.009 118.506Z" fill="#FFF3F0"/>
<path fill-rule="evenodd" clip-rule="evenodd" d="M225.854 119.563C226.731 119.563 228.133 119.211 227.257 120.267C226.906 119.915 226.03 120.267 225.854 119.563Z" fill="#FFF3F0"/>
<path fill-rule="evenodd" clip-rule="evenodd" d="M228.308 119.035C230.061 118.683 228.308 120.619 228.308 119.035V119.035Z" fill="#FFF3F0"/>
<path fill-rule="evenodd" clip-rule="evenodd" d="M200.79 125.547C200.614 125.547 200.965 125.195 201.14 125.195C201.491 125.195 200.965 125.547 200.79 125.547Z" fill="#FFF3F0"/>
<path fill-rule="evenodd" clip-rule="evenodd" d="M219.544 121.675C219.544 121.147 220.07 121.675 220.07 122.027C220.07 122.555 219.544 122.027 219.544 121.675Z" fill="#FFF3F0"/>
<path d="M223.835 121.471C224.119 121.412 224.318 121.21 224.279 121.02C224.24 120.829 223.978 120.723 223.693 120.782C223.409 120.84 223.21 121.043 223.249 121.233C223.288 121.423 223.55 121.53 223.835 121.471Z" fill="#FFF3F0"/>
<path fill-rule="evenodd" clip-rule="evenodd" d="M203.068 125.899C203.068 125.547 203.419 125.723 203.419 125.723C203.419 126.075 203.068 125.899 203.068 125.899Z" fill="#FFF3F0"/>
<path fill-rule="evenodd" clip-rule="evenodd" d="M205.522 125.371C205.522 125.195 206.048 125.019 206.223 125.019C206.223 125.195 205.873 125.195 205.522 125.371Z" fill="#FFF3F0"/>
<path fill-rule="evenodd" clip-rule="evenodd" d="M206.749 125.019C206.574 125.019 206.924 124.667 207.1 124.667C207.275 124.843 206.924 125.019 206.749 125.019Z" fill="#FFF3F0"/>
<path fill-rule="evenodd" clip-rule="evenodd" d="M216.039 123.259C216.389 123.963 215.338 124.139 214.636 124.315C214.461 123.787 214.987 123.435 216.039 123.259Z" fill="#FFF3F0"/>
<path fill-rule="evenodd" clip-rule="evenodd" d="M216.565 123.611C216.565 123.259 216.915 123.435 216.915 123.435C217.09 123.963 216.74 123.787 216.565 123.611Z" fill="#FFF3F0"/>
<path fill-rule="evenodd" clip-rule="evenodd" d="M219.895 123.259C219.72 123.259 220.07 122.907 220.245 122.907C220.596 122.907 220.07 123.259 219.895 123.259Z" fill="#FFF3F0"/>
<path fill-rule="evenodd" clip-rule="evenodd" d="M200.264 128.363C200.264 128.187 200.439 128.011 200.614 128.187C200.439 128.187 200.439 128.363 200.264 128.363Z" fill="#FFF3F0"/>
<path fill-rule="evenodd" clip-rule="evenodd" d="M221.823 123.611C221.823 123.435 221.998 123.259 222.173 123.435C221.998 123.611 221.823 123.611 221.823 123.611Z" fill="#FFF3F0"/>
<path fill-rule="evenodd" clip-rule="evenodd" d="M226.731 108.474C226.906 109.002 226.555 109.002 226.555 109.354C226.205 109.354 226.205 109.178 225.854 109.178C225.854 109.002 225.679 108.826 225.679 108.65C226.03 108.65 226.38 108.65 226.731 108.474Z" fill="#FFF3F0"/>
<path d="M224.87 122.36C225.156 122.309 225.36 122.112 225.326 121.921C225.292 121.729 225.033 121.616 224.747 121.667C224.461 121.718 224.257 121.915 224.291 122.106C224.325 122.297 224.584 122.411 224.87 122.36Z" fill="#FFF3F0"/>
<path fill-rule="evenodd" clip-rule="evenodd" d="M219.194 116.923C219.895 116.747 219.194 117.451 218.843 117.275C218.493 117.099 219.369 116.395 219.194 116.923Z" fill="#FFF3F0"/>
<path fill-rule="evenodd" clip-rule="evenodd" d="M205.522 101.434C205.347 101.434 205.697 101.082 205.873 101.082C206.048 101.082 205.522 101.434 205.522 101.434Z" fill="#FFF3F0"/>
<path fill-rule="evenodd" clip-rule="evenodd" d="M224.978 103.194C224.978 102.842 225.679 102.842 226.205 102.666C226.205 103.018 225.504 103.018 224.978 103.194Z" fill="#FFF3F0"/>
<path fill-rule="evenodd" clip-rule="evenodd" d="M216.214 105.482C216.039 105.482 216.389 105.13 216.564 105.13C216.74 105.13 216.389 105.482 216.214 105.482Z" fill="#FFF3F0"/>
<path fill-rule="evenodd" clip-rule="evenodd" d="M232.69 104.778C232.69 104.426 233.04 104.602 233.04 104.602C233.04 104.954 232.69 104.954 232.69 104.778Z" fill="#FFF3F0"/>
<path fill-rule="evenodd" clip-rule="evenodd" d="M227.256 107.066C227.081 107.066 227.432 106.714 227.607 106.714C227.782 106.714 227.256 107.066 227.256 107.066Z" fill="#FFF3F0"/>
<path fill-rule="evenodd" clip-rule="evenodd" d="M233.742 105.658C233.566 105.658 233.917 105.306 234.092 105.306C234.267 105.306 233.742 105.658 233.742 105.658Z" fill="#FFF3F0"/>
<path fill-rule="evenodd" clip-rule="evenodd" d="M195.181 114.283C195.005 114.283 195.356 113.931 195.531 113.931C195.882 113.931 195.356 114.283 195.181 114.283Z" fill="#FFF3F0"/>
<path fill-rule="evenodd" clip-rule="evenodd" d="M208.151 111.466C207.976 111.466 208.326 111.114 208.502 111.114C208.852 111.114 208.326 111.466 208.151 111.466Z" fill="#FFF3F0"/>
<path fill-rule="evenodd" clip-rule="evenodd" d="M201.841 113.05C201.841 112.698 202.192 112.874 202.192 112.874C202.192 113.226 201.841 113.226 201.841 113.05Z" fill="#FFF3F0"/>
<path fill-rule="evenodd" clip-rule="evenodd" d="M198.336 114.811C198.686 114.811 198.861 114.635 199.212 114.635C199.212 114.811 199.212 114.987 199.387 115.163C199.037 115.163 198.861 115.339 198.511 115.339C198.511 115.163 198.336 114.987 198.336 114.811Z" fill="#FFF3F0"/>
<path fill-rule="evenodd" clip-rule="evenodd" d="M209.729 112.699C210.78 112.347 210.956 113.051 211.131 113.403C210.78 113.755 210.255 113.931 209.553 113.931C209.203 113.403 210.079 113.227 209.729 112.699Z" fill="#FFF3F0"/>
<path fill-rule="evenodd" clip-rule="evenodd" d="M208.326 113.578C208.326 113.226 208.852 113.402 208.852 113.754C208.677 114.106 208.326 113.754 208.326 113.578Z" fill="#FFF3F0"/>
<path fill-rule="evenodd" clip-rule="evenodd" d="M224.978 109.882C224.802 109.882 225.153 109.53 225.328 109.53C225.503 109.706 224.978 109.882 224.978 109.882Z" fill="#FFF3F0"/>
<path fill-rule="evenodd" clip-rule="evenodd" d="M211.481 113.05C211.481 112.698 211.832 112.874 211.832 112.874C212.007 113.226 211.657 113.226 211.481 113.05Z" fill="#FFF3F0"/>
<path fill-rule="evenodd" clip-rule="evenodd" d="M205.873 115.867C205.347 115.867 204.821 116.043 204.996 115.515C205.347 115.515 205.522 115.339 205.873 115.339C205.697 115.515 205.873 115.691 205.873 115.867Z" fill="#FFF3F0"/>
<path fill-rule="evenodd" clip-rule="evenodd" d="M209.028 114.987C209.028 114.635 209.378 114.811 209.378 114.811C209.378 115.163 209.028 115.163 209.028 114.987Z" fill="#FFF3F0"/>
<path fill-rule="evenodd" clip-rule="evenodd" d="M211.131 114.811C210.956 114.811 211.306 114.458 211.481 114.458C211.657 114.458 211.306 114.811 211.131 114.811Z" fill="#FFF3F0"/>
<path fill-rule="evenodd" clip-rule="evenodd" d="M200.614 117.098C201.841 116.394 201.666 118.683 200.089 118.507C200.089 117.979 201.14 117.803 200.614 117.098Z" fill="#FFF3F0"/>
<path fill-rule="evenodd" clip-rule="evenodd" d="M202.192 116.747C202.893 116.747 203.243 117.275 203.243 117.803C202.367 117.979 202.192 117.275 202.192 116.747Z" fill="#FFF3F0"/>
<path fill-rule="evenodd" clip-rule="evenodd" d="M205.873 115.867C207.275 116.219 205.697 117.627 205.873 115.867V115.867Z" fill="#FFF3F0"/>
<path fill-rule="evenodd" clip-rule="evenodd" d="M218.843 113.402C218.843 113.05 219.544 113.05 219.719 113.226C219.369 113.402 219.018 113.578 218.843 113.402Z" fill="#FFF3F0"/>
<path fill-rule="evenodd" clip-rule="evenodd" d="M228.658 111.29C228.483 111.29 228.834 110.938 229.009 110.938C229.184 110.938 228.658 111.29 228.658 111.29Z" fill="#FFF3F0"/>
<path fill-rule="evenodd" clip-rule="evenodd" d="M195.882 118.859C195.882 118.507 196.232 118.683 196.232 118.683C196.232 119.035 195.882 119.035 195.882 118.859Z" fill="#FFF3F0"/>
<path fill-rule="evenodd" clip-rule="evenodd" d="M220.07 113.402C221.472 113.05 222.874 114.459 220.771 114.811C221.823 113.93 220.245 114.106 220.07 113.402Z" fill="#FFF3F0"/>
<path fill-rule="evenodd" clip-rule="evenodd" d="M208.852 116.395C209.378 116.395 209.378 116.923 209.553 117.275C208.677 117.451 208.502 116.747 208.852 116.395Z" fill="#FFF3F0"/>
<path fill-rule="evenodd" clip-rule="evenodd" d="M222.349 113.578C222.349 113.05 222.874 113.578 222.874 113.931C222.874 114.635 222.349 114.107 222.349 113.578Z" fill="#FFF3F0"/>
<path fill-rule="evenodd" clip-rule="evenodd" d="M202.017 119.386C201.666 118.858 200.965 118.33 202.542 117.978C202.718 118.506 202.893 119.21 202.017 119.386Z" fill="#FFF3F0"/>
<path fill-rule="evenodd" clip-rule="evenodd" d="M212.358 116.394C212.358 116.042 212.708 116.218 212.708 116.218C212.708 116.57 212.358 116.57 212.358 116.394Z" fill="#FFF3F0"/>
<path fill-rule="evenodd" clip-rule="evenodd" d="M195.356 120.619C195.356 120.443 195.882 120.267 196.057 120.267C196.232 120.443 195.707 120.443 195.356 120.619Z" fill="#FFF3F0"/>
<path fill-rule="evenodd" clip-rule="evenodd" d="M197.109 120.267C196.933 120.267 197.284 119.915 197.459 119.915C197.634 119.915 197.109 120.267 197.109 120.267Z" fill="#FFF3F0"/>
<path fill-rule="evenodd" clip-rule="evenodd" d="M198.336 119.915C198.16 119.915 198.511 119.563 198.686 119.563C198.862 119.739 198.336 120.091 198.336 119.915Z" fill="#FFF3F0"/>
<path fill-rule="evenodd" clip-rule="evenodd" d="M199.738 120.971C200.088 120.443 199.563 119.739 200.264 119.211C202.017 118.859 199.563 120.091 200.614 120.971C200.264 121.147 200.088 120.971 199.738 120.971Z" fill="#FFF3F0"/>
<path fill-rule="evenodd" clip-rule="evenodd" d="M205.171 118.507C205.171 118.155 205.522 118.331 205.522 118.331C205.522 118.683 205.171 118.683 205.171 118.507Z" fill="#FFF3F0"/>
<path fill-rule="evenodd" clip-rule="evenodd" d="M210.43 117.275C210.255 117.275 210.605 116.922 210.78 116.922C210.956 117.098 210.605 117.275 210.43 117.275Z" fill="#FFF3F0"/>
<path fill-rule="evenodd" clip-rule="evenodd" d="M230.762 112.874C230.762 112.522 231.112 112.698 231.112 112.698C231.112 113.05 230.762 113.05 230.762 112.874Z" fill="#FFF3F0"/>
<path fill-rule="evenodd" clip-rule="evenodd" d="M197.284 120.971C196.758 120.091 198.862 120.091 199.212 120.267C199.212 120.619 198.16 120.619 198.511 121.147C197.985 121.323 198.16 120.619 197.284 120.971Z" fill="#FFF3F0"/>
<path fill-rule="evenodd" clip-rule="evenodd" d="M202.016 119.387C202.893 120.795 200.965 121.147 201.14 119.563C201.491 119.563 201.666 119.563 202.016 119.387Z" fill="#FFF3F0"/>
<path fill-rule="evenodd" clip-rule="evenodd" d="M206.398 118.507C207.625 118.331 207.625 119.563 206.223 119.563C206.574 119.211 206.574 118.859 206.398 118.507Z" fill="#FFF3F0"/>
<path fill-rule="evenodd" clip-rule="evenodd" d="M208.151 118.331C209.028 117.979 209.028 118.507 209.203 118.859C208.852 118.859 208.677 118.683 208.326 118.859C208.151 118.683 208.151 118.507 208.151 118.331Z" fill="#FFF3F0"/>
<path fill-rule="evenodd" clip-rule="evenodd" d="M217.09 116.395C217.791 116.571 218.493 116.571 218.493 117.099C217.791 117.099 217.09 117.099 217.09 116.395Z" fill="#FFF3F0"/>
<path fill-rule="evenodd" clip-rule="evenodd" d="M197.284 120.971C197.284 121.147 197.459 121.499 197.459 121.675C196.933 121.851 196.758 121.147 197.284 120.971Z" fill="#FFF3F0"/>
<path fill-rule="evenodd" clip-rule="evenodd" d="M204.646 119.739C204.646 119.387 204.996 119.563 204.996 119.563C204.996 119.915 204.646 119.739 204.646 119.739Z" fill="#FFF3F0"/>
<path fill-rule="evenodd" clip-rule="evenodd" d="M219.544 116.395C219.544 116.043 220.07 116.043 219.544 116.395V116.395Z" fill="#FFF3F0"/>
<path fill-rule="evenodd" clip-rule="evenodd" d="M215.162 117.274C216.039 117.098 216.214 117.803 215.863 118.155C215.162 118.331 215.337 117.803 215.162 117.274Z" fill="#FFF3F0"/>
<path fill-rule="evenodd" clip-rule="evenodd" d="M219.544 116.395C219.719 116.747 219.018 116.747 219.544 116.395V116.395Z" fill="#FFF3F0"/>
<path fill-rule="evenodd" clip-rule="evenodd" d="M222.874 115.691C224.803 115.515 222.874 117.275 222.874 115.691V115.691Z" fill="#FFF3F0"/>
<path fill-rule="evenodd" clip-rule="evenodd" d="M224.978 115.514C224.978 115.162 225.504 115.338 225.504 115.69C225.328 116.042 224.978 115.69 224.978 115.514Z" fill="#FFF3F0"/>
<path fill-rule="evenodd" clip-rule="evenodd" d="M199.738 120.971C199.913 121.323 199.212 121.323 199.738 120.971V120.971Z" fill="#FFF3F0"/>
<path fill-rule="evenodd" clip-rule="evenodd" d="M216.389 117.626C216.214 117.626 216.564 117.274 216.74 117.274C217.09 117.274 216.564 117.626 216.389 117.626Z" fill="#FFF3F0"/>
<path fill-rule="evenodd" clip-rule="evenodd" d="M197.459 121.675C197.81 121.675 197.81 122.027 197.459 121.675V121.675Z" fill="#FFF3F0"/>
<path fill-rule="evenodd" clip-rule="evenodd" d="M229.009 115.162C228.834 115.162 229.184 114.81 229.36 114.81C229.71 114.81 229.184 115.162 229.009 115.162Z" fill="#FFF3F0"/>
<path fill-rule="evenodd" clip-rule="evenodd" d="M201.14 121.499C201.14 121.323 201.666 121.147 201.841 121.147C202.016 121.323 201.491 121.323 201.14 121.499Z" fill="#FFF3F0"/>
<path fill-rule="evenodd" clip-rule="evenodd" d="M202.718 121.147C203.243 120.091 203.945 121.499 203.769 122.027C203.419 122.203 202.893 122.203 202.542 122.379C202.192 121.851 203.243 121.851 203.243 121.499C203.243 120.971 203.068 121.147 202.718 121.147Z" fill="#FFF3F0"/>
<path fill-rule="evenodd" clip-rule="evenodd" d="M205.697 120.443C205.697 120.091 206.398 120.091 206.574 120.267C206.398 120.795 206.048 120.443 205.697 120.443Z" fill="#FFF3F0"/>
<path fill-rule="evenodd" clip-rule="evenodd" d="M212.884 118.859C212.884 118.507 213.234 118.683 213.234 118.683C213.234 119.035 212.884 119.035 212.884 118.859Z" fill="#FFF3F0"/>
<path fill-rule="evenodd" clip-rule="evenodd" d="M199.212 122.203C200.088 122.027 200.264 122.731 199.913 123.083C198.862 123.259 198.686 122.555 199.212 122.203Z" fill="#FFF3F0"/>
<path fill-rule="evenodd" clip-rule="evenodd" d="M197.284 123.083C197.284 122.731 197.635 122.907 197.635 122.907C197.635 123.259 197.284 123.259 197.284 123.083Z" fill="#FFF3F0"/>
<path fill-rule="evenodd" clip-rule="evenodd" d="M210.255 120.267C210.079 119.915 212.358 119.387 212.007 120.091C211.131 120.443 210.78 120.267 210.255 120.267Z" fill="#FFF3F0"/>
<path fill-rule="evenodd" clip-rule="evenodd" d="M221.122 117.627C221.998 117.451 221.648 118.507 222.524 118.331C222.173 119.211 221.122 118.331 221.122 117.627Z" fill="#FFF3F0"/>
<path fill-rule="evenodd" clip-rule="evenodd" d="M229.71 116.043C229.71 115.691 230.061 115.867 230.061 115.867C230.061 116.219 229.71 116.219 229.71 116.043Z" fill="#FFF3F0"/>
<path fill-rule="evenodd" clip-rule="evenodd" d="M200.439 122.379C201.14 122.203 201.315 122.379 201.315 122.731C200.965 122.731 200.965 122.907 200.965 123.083C200.614 123.083 200.614 122.731 200.439 122.379Z" fill="#FFF3F0"/>
<path fill-rule="evenodd" clip-rule="evenodd" d="M215.513 119.211C217.266 119.563 214.461 120.267 215.513 119.211V119.211Z" fill="#FFF3F0"/>
<path fill-rule="evenodd" clip-rule="evenodd" d="M206.398 122.203C206.223 122.203 206.048 122.203 206.048 122.379C206.223 122.555 206.398 122.379 206.398 122.203C208.151 121.675 207.976 122.731 209.378 121.851C209.378 122.027 209.553 122.379 209.553 122.555C208.677 122.731 206.924 122.379 207.625 123.435C206.048 123.963 204.12 121.675 206.223 121.323C206.398 121.675 206.398 121.851 206.398 122.203Z" fill="#FFF3F0"/>
<path fill-rule="evenodd" clip-rule="evenodd" d="M202.718 122.907C203.243 121.499 205.347 122.555 204.47 123.083C204.12 123.259 203.594 122.203 202.718 122.907Z" fill="#FFF3F0"/>
<path fill-rule="evenodd" clip-rule="evenodd" d="M210.43 121.323C210.255 121.323 210.605 120.971 210.78 120.971C211.131 120.971 210.605 121.323 210.43 121.323Z" fill="#FFF3F0"/>
<path fill-rule="evenodd" clip-rule="evenodd" d="M212.533 120.795C212.358 120.795 212.708 120.443 212.884 120.443C213.059 120.619 212.708 120.971 212.533 120.795Z" fill="#FFF3F0"/>
<path fill-rule="evenodd" clip-rule="evenodd" d="M214.636 120.443C214.461 120.443 214.812 120.091 214.987 120.091C215.162 120.091 214.636 120.443 214.636 120.443Z" fill="#FFF3F0"/>
<path fill-rule="evenodd" clip-rule="evenodd" d="M218.142 119.563C216.565 120.267 217.967 118.859 218.142 119.563V119.563Z" fill="#FFF3F0"/>
<path fill-rule="evenodd" clip-rule="evenodd" d="M220.245 119.211C220.07 119.211 220.421 118.859 220.596 118.859C220.771 118.859 220.421 119.211 220.245 119.211Z" fill="#FFF3F0"/>
<path fill-rule="evenodd" clip-rule="evenodd" d="M218.142 119.563C218.843 119.387 219.544 119.211 219.544 119.739C219.194 119.915 218.668 119.915 218.317 120.091C218.317 119.915 218.317 119.739 218.142 119.563Z" fill="#FFF3F0"/>
<path fill-rule="evenodd" clip-rule="evenodd" d="M225.153 118.683C224.627 117.627 226.38 118.331 225.153 118.683V118.683Z" fill="#FFF3F0"/>
<path fill-rule="evenodd" clip-rule="evenodd" d="M226.38 118.155C226.205 118.155 226.555 117.803 226.731 117.803C226.906 117.803 226.555 118.155 226.38 118.155Z" fill="#FFF3F0"/>
<path fill-rule="evenodd" clip-rule="evenodd" d="M210.605 121.851C210.43 121.851 210.78 121.499 210.956 121.499C211.131 121.499 210.78 121.851 210.605 121.851Z" fill="#FFF3F0"/>
<path fill-rule="evenodd" clip-rule="evenodd" d="M212.182 121.147C212.533 121.147 212.708 120.971 213.059 120.971C213.409 121.499 212.533 121.499 212.007 121.675C211.832 121.499 212.182 121.499 212.182 121.147Z" fill="#FFF3F0"/>
<path fill-rule="evenodd" clip-rule="evenodd" d="M214.286 120.795C214.636 120.795 214.812 120.619 215.162 120.619C215.338 120.971 214.812 121.147 214.987 121.499C214.636 121.499 214.461 121.675 214.111 121.675C213.76 121.147 214.286 121.147 214.286 120.795Z" fill="#FFF3F0"/>
<path fill-rule="evenodd" clip-rule="evenodd" d="M202.192 123.963C202.017 123.963 202.367 123.611 202.542 123.611C202.718 123.611 202.367 123.963 202.192 123.963Z" fill="#FFF3F0"/>
<path fill-rule="evenodd" clip-rule="evenodd" d="M225.153 118.682C226.029 119.915 224.101 119.211 225.153 118.682V118.682Z" fill="#FFF3F0"/>
<path fill-rule="evenodd" clip-rule="evenodd" d="M217.266 120.971C217.09 120.971 217.441 120.619 217.616 120.619C217.791 120.619 217.266 120.971 217.266 120.971Z" fill="#FFF3F0"/>
<path fill-rule="evenodd" clip-rule="evenodd" d="M224.277 119.915C223.926 120.091 223.926 120.267 223.926 120.443C222.524 120.619 223.926 118.507 224.277 119.915Z" fill="#FFF3F0"/>
<path fill-rule="evenodd" clip-rule="evenodd" d="M218.142 120.971C218.492 120.971 218.843 121.147 219.369 120.971C219.544 121.499 218.843 121.851 218.843 122.379C217.265 122.555 218.668 121.851 218.142 120.971Z" fill="#FFF3F0"/>
<path fill-rule="evenodd" clip-rule="evenodd" d="M210.956 123.259C210.78 123.259 210.605 123.259 210.605 123.435C210.43 122.907 210.956 122.731 210.956 123.259Z" fill="#FFF3F0"/>
<path d="M212.233 123.071C212.517 123.012 212.716 122.81 212.677 122.619C212.638 122.429 212.376 122.322 212.092 122.381C211.807 122.44 211.608 122.642 211.647 122.832C211.686 123.023 211.949 123.129 212.233 123.071Z" fill="#FFF3F0"/>
<path fill-rule="evenodd" clip-rule="evenodd" d="M213.76 122.379C213.585 122.379 213.935 122.027 214.111 122.027C214.286 122.203 213.935 122.555 213.76 122.379Z" fill="#FFF3F0"/>
<path fill-rule="evenodd" clip-rule="evenodd" d="M224.277 119.915C225.504 119.739 224.101 120.971 224.277 119.915V119.915Z" fill="#FFF3F0"/>
<path fill-rule="evenodd" clip-rule="evenodd" d="M225.504 119.915C225.854 119.915 226.029 119.739 226.38 119.739C226.205 119.915 226.029 120.267 226.205 120.619C225.153 120.619 225.153 120.267 225.504 119.915Z" fill="#FFF3F0"/>
<path fill-rule="evenodd" clip-rule="evenodd" d="M203.243 125.019C203.594 125.019 203.769 124.843 204.12 124.843C204.12 125.019 204.12 125.195 204.295 125.371C203.944 125.371 203.769 125.547 203.419 125.547C203.419 125.371 203.243 125.195 203.243 125.019Z" fill="#FFF3F0"/>
<path fill-rule="evenodd" clip-rule="evenodd" d="M204.821 124.667C205.171 124.667 205.347 124.491 205.697 124.491C205.697 124.667 205.697 124.843 205.873 125.019C205.522 125.019 205.347 125.195 204.996 125.195C204.996 125.019 204.996 124.843 204.821 124.667Z" fill="#FFF3F0"/>
<path fill-rule="evenodd" clip-rule="evenodd" d="M206.574 124.315C206.924 124.315 207.1 124.139 207.45 124.139C207.45 124.315 207.45 124.491 207.625 124.667C207.275 124.667 207.1 124.843 206.749 124.843C206.574 124.667 206.574 124.491 206.574 124.315Z" fill="#FFF3F0"/>
<path fill-rule="evenodd" clip-rule="evenodd" d="M210.605 123.435C210.43 123.787 209.904 124.139 209.028 124.315C208.502 123.611 209.904 123.611 210.605 123.435Z" fill="#FFF3F0"/>
<path fill-rule="evenodd" clip-rule="evenodd" d="M210.955 123.259C212.182 123.259 210.78 124.667 210.955 123.259V123.259Z" fill="#FFF3F0"/>
<path fill-rule="evenodd" clip-rule="evenodd" d="M213.059 123.083C213.059 122.907 213.585 122.731 213.76 122.731C213.935 122.907 213.409 123.083 213.059 123.083Z" fill="#FFF3F0"/>
<path fill-rule="evenodd" clip-rule="evenodd" d="M214.636 122.555C215.162 122.555 215.513 122.907 215.688 123.435C214.461 123.963 214.812 122.907 214.636 122.555Z" fill="#FFF3F0"/>
<path fill-rule="evenodd" clip-rule="evenodd" d="M216.214 122.203C216.564 122.203 216.74 122.027 217.09 122.027C217.09 122.203 217.09 122.379 217.265 122.555C216.915 122.555 216.74 122.731 216.389 122.731C216.389 122.555 216.214 122.379 216.214 122.203Z" fill="#FFF3F0"/>
<path fill-rule="evenodd" clip-rule="evenodd" d="M227.256 120.091C227.081 120.091 227.432 119.739 227.607 119.739C227.782 119.739 227.432 120.091 227.256 120.091Z" fill="#FFF3F0"/>
<path fill-rule="evenodd" clip-rule="evenodd" d="M201.841 126.075C201.841 125.723 202.542 125.723 202.718 125.899C202.542 126.251 202.192 125.899 201.841 126.075Z" fill="#FFF3F0"/>
<path fill-rule="evenodd" clip-rule="evenodd" d="M198.336 127.659C198.336 127.307 198.686 127.483 198.686 127.483C198.686 127.835 198.336 127.835 198.336 127.659Z" fill="#FFF3F0"/>
<path fill-rule="evenodd" clip-rule="evenodd" d="M203.243 126.603C202.718 126.779 202.893 126.251 203.243 126.603V126.603Z" fill="#FFF3F0"/>
<path fill-rule="evenodd" clip-rule="evenodd" d="M208.151 125.547C207.976 125.195 208.677 125.195 208.151 125.547V125.547Z" fill="#FFF3F0"/>
<path fill-rule="evenodd" clip-rule="evenodd" d="M211.481 125.371C210.255 125.371 210.43 126.075 209.028 126.075C208.852 125.547 212.183 123.963 211.481 125.371Z" fill="#FFF3F0"/>
<path fill-rule="evenodd" clip-rule="evenodd" d="M227.607 121.323C227.607 120.971 227.957 121.147 227.957 121.147C227.957 121.499 227.607 121.499 227.607 121.323Z" fill="#FFF3F0"/>
<path fill-rule="evenodd" clip-rule="evenodd" d="M203.243 126.603C204.996 125.899 203.068 127.835 203.243 126.603V126.603Z" fill="#FFF3F0"/>
<path fill-rule="evenodd" clip-rule="evenodd" d="M208.151 125.547C208.852 126.075 206.574 126.603 206.924 125.899C207.275 125.723 207.625 125.547 208.151 125.547Z" fill="#FFF3F0"/>
<path fill-rule="evenodd" clip-rule="evenodd" d="M214.286 124.491C214.286 123.963 214.987 124.491 214.812 124.667C214.286 125.019 213.585 124.491 214.286 124.491Z" fill="#FFF3F0"/>
<path fill-rule="evenodd" clip-rule="evenodd" d="M218.668 123.435C218.843 123.083 219.018 123.435 219.544 123.259C219.544 123.611 218.668 123.787 218.668 123.435Z" fill="#FFF3F0"/>
<path fill-rule="evenodd" clip-rule="evenodd" d="M225.153 122.027C225.153 121.675 225.504 121.851 225.504 121.851C225.504 122.379 225.153 122.203 225.153 122.027Z" fill="#FFF3F0"/>
<path fill-rule="evenodd" clip-rule="evenodd" d="M216.74 124.139C216.74 123.787 217.441 123.787 217.967 123.611C217.791 123.963 217.09 123.963 216.74 124.139Z" fill="#FFF3F0"/>
<path fill-rule="evenodd" clip-rule="evenodd" d="M230.762 120.795C230.937 121.675 229.009 121.675 228.133 122.203C227.782 121.323 230.236 121.499 230.762 120.795Z" fill="#FFF3F0"/>
<path fill-rule="evenodd" clip-rule="evenodd" d="M211.481 125.371C213.059 124.667 211.657 126.075 211.481 125.371V125.371Z" fill="#FFF3F0"/>
<path fill-rule="evenodd" clip-rule="evenodd" d="M215.162 124.843C215.162 124.491 215.863 124.491 216.039 124.667C215.863 125.019 215.513 124.667 215.162 124.843Z" fill="#FFF3F0"/>
<path fill-rule="evenodd" clip-rule="evenodd" d="M211.306 126.427C211.306 126.075 211.657 126.251 211.657 126.251C211.657 126.603 211.306 126.603 211.306 126.427Z" fill="#FFF3F0"/>
<path fill-rule="evenodd" clip-rule="evenodd" d="M216.915 125.195C218.142 125.371 216.389 126.251 215.513 126.251C214.636 125.547 217.266 125.899 216.915 125.195Z" fill="#FFF3F0"/>
<path fill-rule="evenodd" clip-rule="evenodd" d="M208.151 127.659C207.976 127.659 208.326 127.307 208.502 127.307C208.677 127.483 208.326 127.659 208.151 127.659Z" fill="#FFF3F0"/>
<path fill-rule="evenodd" clip-rule="evenodd" d="M214.636 126.427C214.636 126.075 214.987 126.251 214.987 126.251C215.162 126.779 214.636 126.603 214.636 126.427Z" fill="#FFF3F0"/>
<path fill-rule="evenodd" clip-rule="evenodd" d="M229.009 123.611C228.834 123.611 229.184 123.259 229.36 123.259C229.535 123.435 229.009 123.787 229.009 123.611Z" fill="#FFF3F0"/>
<path fill-rule="evenodd" clip-rule="evenodd" d="M219.194 126.075C219.018 126.075 219.369 125.723 219.544 125.723C219.895 125.723 219.369 126.075 219.194 126.075Z" fill="#FFF3F0"/>
<path fill-rule="evenodd" clip-rule="evenodd" d="M227.782 124.139C227.607 124.139 227.957 123.787 228.133 123.787C228.308 123.963 227.957 124.139 227.782 124.139Z" fill="#FFF3F0"/>
<path fill-rule="evenodd" clip-rule="evenodd" d="M207.976 129.067C207.976 128.715 208.327 128.891 208.327 128.891C208.502 129.243 207.976 129.067 207.976 129.067Z" fill="#FFF3F0"/>
<path fill-rule="evenodd" clip-rule="evenodd" d="M211.657 128.539C211.657 128.187 212.183 128.363 212.183 128.715C212.183 129.067 211.657 128.715 211.657 128.539Z" fill="#FFF3F0"/>
<path fill-rule="evenodd" clip-rule="evenodd" d="M218.668 126.955C218.843 126.603 219.018 126.955 219.544 126.779C219.369 127.131 218.668 127.307 218.668 126.955Z" fill="#FFF3F0"/>
<path fill-rule="evenodd" clip-rule="evenodd" d="M221.823 126.075C222.874 125.899 222.173 126.955 221.998 127.131C220.771 127.131 222.349 126.427 221.823 126.075Z" fill="#FFF3F0"/>
<path fill-rule="evenodd" clip-rule="evenodd" d="M202.017 130.827C202.017 130.475 202.542 130.651 202.542 131.003C202.542 131.355 202.017 131.179 202.017 130.827Z" fill="#FFF3F0"/>
<path fill-rule="evenodd" clip-rule="evenodd" d="M220.596 129.771C220.07 129.947 220.245 129.419 220.596 129.771V129.771Z" fill="#FFF3F0"/>
<path fill-rule="evenodd" clip-rule="evenodd" d="M219.369 130.299C219.194 130.299 219.544 129.947 219.719 129.947C219.895 129.947 219.544 130.299 219.369 130.299Z" fill="#FFF3F0"/>
<path fill-rule="evenodd" clip-rule="evenodd" d="M220.596 129.771C221.823 129.243 221.297 130.123 221.122 130.475C220.596 130.475 220.596 130.123 220.596 129.771Z" fill="#FFF3F0"/>
<path fill-rule="evenodd" clip-rule="evenodd" d="M222.173 129.595C221.998 129.595 222.349 129.243 222.524 129.243C222.875 129.419 222.349 129.771 222.173 129.595Z" fill="#FFF3F0"/>
<path fill-rule="evenodd" clip-rule="evenodd" d="M206.749 134.524C206.749 134.172 207.1 134.348 207.1 134.348C207.1 134.876 206.749 134.7 206.749 134.524Z" fill="#FFF3F0"/>
<path fill-rule="evenodd" clip-rule="evenodd" d="M220.946 131.707C220.946 131.531 221.472 131.355 221.648 131.355C221.823 131.531 221.297 131.707 220.946 131.707Z" fill="#FFF3F0"/>
<path fill-rule="evenodd" clip-rule="evenodd" d="M220.946 133.291C220.771 133.291 221.122 132.939 221.297 132.939C221.472 133.115 221.122 133.467 220.946 133.291Z" fill="#FFF3F0"/>
<path fill-rule="evenodd" clip-rule="evenodd" d="M223.225 133.643C223.225 133.291 223.576 133.467 223.576 133.467C223.576 133.995 223.225 133.819 223.225 133.643Z" fill="#FFF3F0"/>
<path fill-rule="evenodd" clip-rule="evenodd" d="M225.679 133.115C225.679 132.939 226.205 132.763 226.38 132.763C226.38 132.939 225.854 133.115 225.679 133.115Z" fill="#FFF3F0"/>
<path fill-rule="evenodd" clip-rule="evenodd" d="M226.906 132.939C226.73 132.939 227.081 132.587 227.256 132.587C227.432 132.587 226.906 132.939 226.906 132.939Z" fill="#FFF3F0"/>
<path fill-rule="evenodd" clip-rule="evenodd" d="M220.421 136.107C220.421 135.931 220.596 135.755 220.771 135.931C220.596 136.107 220.421 136.107 220.421 136.107Z" fill="#FFF3F0"/>
<path fill-rule="evenodd" clip-rule="evenodd" d="M230.937 108.65C231.112 108.474 231.463 108.826 231.288 108.826C231.112 109.002 230.762 108.826 230.937 108.65Z" fill="#FFF3F0"/>
<path d="M180.633 122.027L189.747 119.739L183.612 114.81L176.251 114.986V118.507L180.633 122.027Z" fill="#FF5535"/>
<path d="M61.094 157.229L61.2693 160.925L239 160.045L238.649 155.82L61.094 157.229Z" fill="#FEFDEC"/>
<path d="M128.926 191.55L128.751 197.182H129.803C129.803 197.182 129.978 191.902 129.978 191.55C129.803 191.374 128.926 191.55 128.926 191.55Z" fill="#FF5535"/>
</svg>
